# xmcd
#
# Track frame offsets: 
#        150
#        11888
#        24183
#        36562
#        48735
#        64911
#        76128
#        88096
#        102558
#        116218
#        130374
#        144088
#        156460
#        169284
#
# Disc length: 3543 seconds
#
# Revision: 1
# Processed by: cddbd v1.5.2PL0 Copyright (c) Steve Scherf et al.
# Submitted via: ExactAudioCopy v0.95b4
#
DISCID=c80dd50e
DTITLE=David Church - A Legend Froze In Time
DYEAR=2003
DGENRE=Country
TTITLE0=A Legend Froze In Time
TTITLE1=You Win Again
TTITLE2=Lovesick Blues
TTITLE3=My Son Calls Another Man Daddy
TTITLE4=Wedding Bells
TTITLE5=Moanin' The Blues
TTITLE6=Long, Gone Lonesome Blues
TTITLE7=Cold, Cold, Heart
TTITLE8=Jambalaya
TTITLE9=Kawliga
TTITLE10=Hey Good Lookin'
TTITLE11=Someday You'll Call My Name
TTITLE12=I Saw The Light
TTITLE13=David Church Don Helms Interview
EXTD=
EXTT0=
EXTT1=
EXTT2=
EXTT3=
EXTT4=
EXTT5=
EXTT6=
EXTT7=
EXTT8=
EXTT9=
EXTT10=
EXTT11=
EXTT12=
EXTT13=
PLAYORDER=
